<?xml version="1.0" standalone="no"?>
<!DOCTYPE svg PUBLIC "-//W3C//DTD SVG 20010904//EN"
 "http://www.w3.org/TR/2001/REC-SVG-20010904/DTD/svg10.dtd">
<svg version="1.0" xmlns="http://www.w3.org/2000/svg"
 width="390.000000pt" height="390.000000pt" viewBox="0 0 390.000000 390.000000"
 preserveAspectRatio="xMidYMid meet">
<metadata>
Created by potrace 1.11, written by Peter Selinger 2001-2013
</metadata>
<g transform="translate(0.000000,390.000000) scale(0.100000,-0.100000)"
fill="#000000" stroke="none">
<path d="M0 1950 l0 -1950 1950 0 1950 0 0 1950 0 1950 -1950 0 -1950 0 0
-1950z m964 1549 c49 -44 127 -147 138 -181 3 -8 32 8 79 42 176 128 303 190
387 190 91 -1 216 -79 435 -273 69 -62 79 -68 95 -56 9 8 51 44 92 80 103 91
221 175 305 215 113 55 176 45 313 -48 163 -110 500 -423 545 -506 59 -109 57
-53 57 -1404 l0 -1238 -310 0 -309 0 -3 1193 c-3 1365 8 1223 -107 1336 -75
74 -141 108 -186 97 -14 -4 -55 -36 -91 -71 l-64 -65 0 -1245 0 -1245 -310 0
-309 0 -3 1187 -3 1188 -27 55 c-31 62 -133 171 -179 190 -51 21 -100 -1 -186
-83 l-74 -72 1 -1232 1 -1233 -310 0 -310 0 -4 1113 c-4 1125 -6 1187 -42
1331 -21 82 -84 205 -160 311 -36 50 -64 93 -62 98 3 11 520 375 534 376 6 1
36 -22 67 -50z"/>
</g>
</svg>
